<?xml version="1.0" encoding="iso-8859-1"?>
<!-- Uploaded to: SVG Repo, www.svgrepo.com, Generator: SVG Repo Mixer Tools -->
<svg height="800px" width="800px" version="1.1" id="Layer_1" xmlns="http://www.w3.org/2000/svg" xmlns:xlink="http://www.w3.org/1999/xlink" 
	 viewBox="0 0 512 512" xml:space="preserve">
<path style="fill:#D7DEED;" d="M326.185,376.775H185.815c-7.417,0-13.429-6.013-13.429-13.429V148.653
	c0-7.417,6.012-13.429,13.429-13.429h140.37c7.417,0,13.429,6.012,13.429,13.429v214.693
	C339.614,370.763,333.601,376.775,326.185,376.775z"/>
<path style="fill:#EFF2FA;" d="M203.577,338.581h104.846c4.826,0,8.737-3.698,8.737-8.258V181.677c0-4.561-3.911-8.258-8.737-8.258
	H203.577c-4.826,0-8.737,3.698-8.737,8.258v148.645C194.84,334.883,198.751,338.581,203.577,338.581z"/>
<g>
	<path style="fill:#FF6464;" d="M229.652,239.961h32.079c-27.067,12.698-24.06,64.159-24.06,64.159h40.099
		c0-53.633,32.079-80.198,32.079-80.198l-8.021-16.04h-88.256c-4.409,0-7.981,3.574-7.981,7.981V256h16.001
		c4.45,0,8.058-3.608,8.058-8.058v-7.981H229.652z"/>
	<path style="fill:#FF6464;" d="M193.289,252.419l-11.612-11.612v30.387l11.612-11.613
		C195.267,257.604,195.267,254.397,193.289,252.419z"/>
	<path style="fill:#FF6464;" d="M318.711,259.581l11.612,11.613v-30.387l-11.612,11.613
		C316.733,254.397,316.733,257.604,318.711,259.581z"/>
</g>
<path style="fill:#D7DEED;" d="M491.346,376.775H350.975c-7.417,0-13.429-6.013-13.429-13.429V148.653
	c0-7.417,6.012-13.429,13.429-13.429h140.371c7.417,0,13.429,6.012,13.429,13.429v214.693
	C504.774,370.763,498.762,376.775,491.346,376.775z"/>
<path style="fill:#EFF2FA;" d="M368.737,338.581h104.846c4.826,0,8.737-3.698,8.737-8.258V181.677c0-4.561-3.912-8.258-8.737-8.258
	H368.737c-4.825,0-8.737,3.698-8.737,8.258v148.645C360,334.883,363.912,338.581,368.737,338.581z"/>
<g>
	<path style="fill:#FF6464;" d="M394.812,239.961h32.079c-27.068,12.698-24.06,64.159-24.06,64.159h40.099
		c0-53.633,32.079-80.198,32.079-80.198l-8.021-16.04h-88.256c-4.409,0-7.981,3.574-7.981,7.981V256h16.002
		c4.45,0,8.058-3.608,8.058-8.058L394.812,239.961L394.812,239.961z"/>
	<path style="fill:#FF6464;" d="M358.451,252.419l-11.613-11.613v30.387l11.613-11.613
		C360.428,257.604,360.428,254.397,358.451,252.419z"/>
	<path style="fill:#FF6464;" d="M483.871,259.581l11.612,11.613v-30.387l-11.612,11.613
		C481.893,254.397,481.893,257.604,483.871,259.581z"/>
</g>
<path style="fill:#D7DEED;" d="M161.026,376.775H20.655c-7.417,0-13.429-6.013-13.429-13.429V148.653
	c0-7.417,6.012-13.429,13.429-13.429h140.37c7.417,0,13.429,6.012,13.429,13.429v214.693
	C174.455,370.763,168.443,376.775,161.026,376.775z"/>
<path style="fill:#EFF2FA;" d="M38.418,338.581h104.846c4.826,0,8.737-3.698,8.737-8.258V181.677c0-4.561-3.911-8.258-8.737-8.258
	H38.418c-4.826,0-8.737,3.698-8.737,8.258v148.645C29.681,334.883,33.592,338.581,38.418,338.581z"/>
<g>
	<path style="fill:#FF6464;" d="M64.492,239.961h32.079c-27.067,12.698-24.06,64.159-24.06,64.159h40.099
		c0-53.633,32.079-80.198,32.079-80.198l-8.021-16.04H48.414c-4.409,0-7.981,3.574-7.981,7.981V256h16.001
		c4.45,0,8.058-3.608,8.058-8.058v-7.981H64.492z"/>
	<path style="fill:#FF6464;" d="M28.13,252.419l-11.612-11.613v30.387L28.13,259.58C30.108,257.604,30.108,254.397,28.13,252.419z"
		/>
	<path style="fill:#FF6464;" d="M153.551,259.581l11.612,11.613v-30.387l-11.612,11.613
		C151.574,254.397,151.574,257.604,153.551,259.581z"/>
</g>
<g>
	<path style="fill:#2D2B29;" d="M470.71,123.871H41.29c-22.767,0-41.29,18.523-41.29,41.29v181.677
		c0,22.767,18.523,41.29,41.29,41.29H470.71c22.767,0,41.29-18.523,41.29-41.29V165.161C512,142.394,493.477,123.871,470.71,123.871
		z M495.484,346.839c0,13.661-11.113,24.774-24.774,24.774H346.839V239.484c0-4.561-3.698-8.258-8.258-8.258
		s-8.258,3.698-8.258,8.258v132.129H181.677V239.484c0-4.561-3.698-8.258-8.258-8.258c-4.561,0-8.258,3.698-8.258,8.258v132.129
		H41.29c-13.661,0-24.774-11.113-24.774-24.774V165.161c0-13.661,11.113-24.774,24.774-24.774h123.871v16.516
		c0,4.561,3.698,8.258,8.258,8.258c4.561,0,8.258-3.698,8.258-8.258v-16.516h148.645v16.516c0,4.561,3.698,8.258,8.258,8.258
		s8.258-3.698,8.258-8.258v-16.516H470.71c13.661,0,24.774,11.113,24.774,24.774V346.839z"/>
	<path style="fill:#2D2B29;" d="M173.419,181.677c-4.561,0-8.258,3.698-8.258,8.258v16.516c0,4.561,3.698,8.258,8.258,8.258
		c4.561,0,8.258-3.698,8.258-8.258v-16.516C181.677,185.375,177.98,181.677,173.419,181.677z"/>
	<path style="fill:#2D2B29;" d="M338.581,181.677c-4.561,0-8.258,3.698-8.258,8.258v16.516c0,4.561,3.698,8.258,8.258,8.258
		s8.258-3.698,8.258-8.258v-16.516C346.839,185.375,343.141,181.677,338.581,181.677z"/>
	<path style="fill:#2D2B29;" d="M147.773,202.758c-1.399-2.797-4.258-4.565-7.386-4.565H49.509c-9.085,0-16.477,7.392-16.477,16.477
		V256c0,4.561,3.698,8.258,8.258,8.258h16.477c9.116,0,16.535-7.405,16.555-16.516h4.07c-14.179,22.44-12.422,56.442-12.315,58.289
		c0.256,4.365,3.871,7.776,8.245,7.776h41.29c4.561,0,8.258-3.698,8.258-8.258c0-50.345,28.839-75.208,30.042-76.22
		c2.958-2.451,3.837-6.618,2.119-10.053L147.773,202.758z M107.589,297.29H82.485c0.428-16.167,4.429-42.969,20.121-50.33
		c3.502-1.643,5.395-5.498,4.552-9.273c-0.842-3.776-4.192-6.462-8.061-6.462H66.065c-4.561,0-8.258,3.698-8.258,8.258l-0.039,8.258
		H49.54l-0.031-33.032h85.773l3.271,6.542C129.311,231.048,109.934,256.251,107.589,297.29z"/>
	<path style="fill:#2D2B29;" d="M312.934,202.758c-1.399-2.797-4.258-4.565-7.386-4.565H214.67c-9.086,0-16.477,7.392-16.477,16.477
		V256c0,4.561,3.698,8.258,8.258,8.258h16.477c9.116,0,16.535-7.405,16.555-16.516h4.07c-14.179,22.44-12.422,56.442-12.315,58.289
		c0.255,4.365,3.871,7.776,8.244,7.776h41.29c4.561,0,8.258-3.698,8.258-8.258c0-50.345,28.839-75.208,30.042-76.22
		c2.958-2.451,3.837-6.618,2.119-10.053L312.934,202.758z M272.75,297.29h-25.105c0.428-16.167,4.429-42.969,20.121-50.33
		c3.502-1.643,5.395-5.498,4.552-9.273c-0.842-3.776-4.192-6.462-8.061-6.462h-33.032c-4.561,0-8.258,3.698-8.258,8.258
		l-0.039,8.258h-8.227l-0.031-33.032h85.773l3.271,6.542C294.472,231.048,275.096,256.251,272.75,297.29z"/>
	<path style="fill:#2D2B29;" d="M478.095,202.758c-1.399-2.797-4.258-4.565-7.386-4.565h-90.878
		c-9.086,0-16.477,7.392-16.477,16.477V256c0,4.561,3.698,8.258,8.258,8.258h16.477c9.116,0,16.535-7.405,16.555-16.516h4.07
		c-14.179,22.44-12.422,56.442-12.315,58.289c0.255,4.365,3.871,7.776,8.244,7.776h41.29c4.561,0,8.258-3.698,8.258-8.258
		c0-50.345,28.839-75.208,30.042-76.22c2.958-2.451,3.837-6.618,2.119-10.053L478.095,202.758z M437.912,297.29h-25.105
		c0.428-16.167,4.429-42.969,20.121-50.33c3.502-1.643,5.395-5.498,4.552-9.273c-0.842-3.776-4.192-6.462-8.061-6.462h-33.032
		c-4.561,0-8.258,3.698-8.258,8.258l-0.039,8.258h-8.227l-0.031-33.032h85.773l3.271,6.542
		C459.634,231.048,440.257,256.251,437.912,297.29z"/>
</g>
</svg>