<?xml version="1.0" encoding="iso-8859-1"?>
<!-- Uploaded to: SVG Repo, www.svgrepo.com, Generator: SVG Repo Mixer Tools -->
<svg height="800px" width="800px" version="1.1" id="Layer_1" xmlns="http://www.w3.org/2000/svg" xmlns:xlink="http://www.w3.org/1999/xlink" 
	 viewBox="0 0 512 512" xml:space="preserve">
<path style="fill:#FFE669;" d="M501.96,53.849c-4.175-21.941-21.867-39.633-43.808-43.808c-12.249-2.331-23.939-0.64-34.015,3.973
	c-17.047,7.804-36.15,10.231-54.073,4.729c-84.634-25.984-190.96,2.914-269.684,81.637C21.655,179.104-7.243,285.43,18.741,370.064
	c5.503,17.923,3.074,37.027-4.729,54.075c-4.611,10.074-6.302,21.762-3.973,34.008c4.173,21.942,21.864,39.635,43.805,43.812
	c12.25,2.332,23.943,0.641,34.021-3.974c17.046-7.804,36.149-10.229,54.071-4.728c84.633,25.985,190.96-2.913,269.685-81.637
	c78.723-78.724,107.623-185.05,81.637-269.685c-5.503-17.923-3.075-37.026,4.729-54.073C502.6,77.787,504.291,66.098,501.96,53.849z
	"/>
<g>
	<path style="fill:#FFD255;" d="M258.951,14.161c-55.714,10.636-111.977,39.622-158.572,86.219
		C21.655,179.104-7.243,285.43,18.741,370.063c5.503,17.924,3.074,37.027-4.729,54.076c-4.611,10.074-6.302,21.762-3.973,34.008
		c4.173,21.942,21.864,39.636,43.805,43.813c12.251,2.331,23.943,0.641,34.021-3.974c17.046-7.804,36.148-10.229,54.071-4.728
		c7.54,2.315,15.3,4.038,23.149,5.485C111.877,383.917,81.104,147.404,258.951,14.161z"/>
	<circle style="fill:#FFD255;" cx="297.172" cy="150.791" r="13.722"/>
	<circle style="fill:#FFD255;" cx="237.701" cy="402.372" r="13.722"/>
	<circle style="fill:#FFD255;" cx="356.632" cy="201.111" r="9.148"/>
	<circle style="fill:#FFD255;" cx="292.592" cy="374.932" r="9.148"/>
	<circle style="fill:#FFD255;" cx="347.482" cy="100.481" r="9.148"/>
</g>
<g>
	<path style="fill:#2D2B29;" d="M506.241,90.514c5.541-12.104,7.123-25.582,4.574-38.978l0,0
		C506.001,26.233,485.767,6,460.466,1.186c-13.395-2.551-26.873-0.969-38.979,4.574c-16.272,7.449-33.538,9.002-48.613,4.374
		c-90.55-27.8-199.977,5.156-278.781,83.958c-78.804,78.804-111.76,188.231-83.959,278.78c4.628,15.076,3.075,32.341-4.375,48.617
		c-5.539,12.102-7.121,25.577-4.574,38.97c4.812,25.303,25.044,45.538,50.346,50.353c4.162,0.793,8.33,1.187,12.464,1.187
		c9.174,0,18.174-1.938,26.52-5.76c16.271-7.448,33.535-9.002,48.612-4.373c90.551,27.805,199.978-5.155,278.781-83.959
		c78.804-78.803,111.76-188.232,83.958-278.781C497.238,124.051,498.792,106.787,506.241,90.514z M486.572,143.824
		c26.084,84.959-5.309,188.102-79.977,262.772S228.78,512.653,143.823,486.573c-18.833-5.781-40.128-3.964-59.968,5.12
		c-9.072,4.154-19.215,5.329-29.333,3.403c-18.906-3.598-34.023-18.717-37.619-37.624c-1.924-10.115-0.747-20.254,3.404-29.322
		c9.083-19.845,10.902-41.144,5.122-59.972c-26.084-84.958,5.309-188.102,79.977-262.771
		c57.223-57.223,131.167-89.029,200.835-89.029c21.24,0,42.086,2.957,61.936,9.051c18.829,5.781,40.127,3.962,59.969-5.121
		c9.069-4.151,19.211-5.329,29.328-3.404c18.905,3.597,34.024,18.716,37.622,37.622l0,0c1.925,10.117,0.748,20.258-3.404,29.327
		C482.609,103.697,480.791,124.994,486.572,143.824z"/>
	<path style="fill:#2D2B29;" d="M69.925,192.824c-3.962-1.956-8.759-0.331-10.715,3.632
		c-27.74,56.184-34.305,115.502-18.486,167.025c1.057,3.441,4.223,5.654,7.645,5.654c0.778,0,1.569-0.114,2.351-0.354
		c4.224-1.296,6.596-5.772,5.299-9.996c-14.615-47.603-8.387-102.737,17.538-155.246C75.513,199.578,73.887,194.78,69.925,192.824z"
		/>
	<path style="fill:#2D2B29;" d="M471.738,199.999c-0.027,0-0.053,0-0.08,0c-4.381,0-7.955,3.53-7.998,7.921
		c-0.362,36.737-10.967,75.122-30.669,111.004c-2.127,3.873-0.711,8.736,3.162,10.863c1.222,0.671,2.542,0.989,3.843,0.989
		c2.825,0,5.564-1.5,7.02-4.151c20.969-38.188,32.257-79.18,32.644-118.548C479.703,203.659,476.156,200.043,471.738,199.999z"/>
	<path style="fill:#2D2B29;" d="M461.484,177.231c0.614,3.949,4.019,6.771,7.895,6.771c0.409,0,0.823-0.031,1.239-0.096
		c4.366-0.679,7.354-4.769,6.675-9.134c-1.391-8.945-3.416-17.777-6.017-26.252c-1.297-4.224-5.775-6.594-9.996-5.299
		c-4.224,1.296-6.597,5.771-5.3,9.996C458.359,160.96,460.211,169.041,461.484,177.231z"/>
</g>
</svg>